<?xml version='1.0' encoding='utf-8'?>
<svg xmlns="http://www.w3.org/2000/svg" width="42cm" height="29.7cm" version="1.1" style="shape-rendering:geometricPrecision; text-rendering:geometricPrecision; image-rendering:optimizeQuality; fill-rule:evenodd; clip-rule:evenodd" viewBox="0 0 420000 297000"> <defs> <style type="text/css">  .fil0 {fill:#9EBF2C}  </style> </defs> <g id="Layer_x0020_1"> <metadata id="CorelCorpID_0Corel-Layer"/> <g id="_2290272820464"> <path class="fil0" d="M151889.7 129728.9l-800 768.3 -32364.2 26671.9c-1591.6,1273.3 -5488.3,3773.4 -5690.5,5929.6 -323.1,3446.3 -0.1,8406.5 2.5,12012.8 2.9,3998.6 -62.5,7993.6 -15.8,11992.7l12.9 6748.4 0.9 6967.8 -0.9 7143.3 0.9 6967.8 -0.9 7143.3 0.9 6967.8 -129.7 6106.8c1471.3,1839.9 905.9,3589.2 3563.1,5672.6 1943.3,1523.7 4083.1,2141.7 7127.1,2199.5l7099.5 -0.8 7011.6 -0.1 7099.5 0.1 7011.7 -0.1 7099.4 0.1 7011.7 -0.1 7099.4 0.1 6063.5 -26.6 37940.4 10.3c12144.5,9.4 24276.1,14.9 36407.5,15.5 6113.7,0.2 12231.3,10.1 18344.6,-4.8 4266.1,-10.4 7505,-694.3 9810.1,-4112 599.1,-888.3 908.4,-2235.6 1622.1,-2988.1 -416.9,-5287 25.3,-13188.2 30.6,-18823 7.6,-8158.9 331,-51153.6 -118.7,-55486.4 -1726.1,-980.8 -17055.6,-13933.4 -19955.9,-16336.7l-19723.4 -16238 -44978.9 -37171.2c-1665.7,645.9 -15615.2,12528.4 -17639.8,14185.5 -5029.4,4116.5 -25123.2,20984 -28941.2,23683.7zm10295.9 99212.5l-6127.1 266.3 799.2 -3596.3 3596.4 -1465.1c0,0 9424.1,-10354.4 12228.5,-17263.3l425.2 -1184.7 -6526 -9124 -1731.5 -6127.1 -4062.6 999 -3529.7 -2996.9 -532.8 -2997 2396.3 -1165.4 1998 -4795.1c0,0 1265.4,-2464.1 1598.4,-2996.9 13.2,-21.2 28.3,-42.1 44.5,-62.9l188.2 -403.4 526.8 -106.9c446.5,-221.5 905.5,-359.2 905.5,-359.2l865.3 0 466.6 0 -565.9 -5461 732.6 166.4 166.5 -1631.6 11788.1 12254.1 2397.5 2930.4 11455 0c0,0 11721.4,-1997.9 14651.7,-2530.8 2930.3,-532.8 18514.4,399.7 18514.4,399.7 0,0 1465.2,-3196.8 1997.9,-4395.6 532.8,-1198.8 2930.4,-6659.8 2930.4,-9323.8 0,-2663.9 -2264.3,-6659.9 -3196.7,-6793.1 -932.4,-133.2 -6526.7,532.8 -6526.7,532.8l0 -3196.7 4528.7 -3196.8 5594.3 799.3 1864.7 1198.8c0,0 3996,6127 3862.8,9989.7 -133.2,3862.6 -4728.4,15650.7 -4728.4,15650.7l-1065.6 4262.2 2302 4903.6c10.1,9.6 19.8,18.2 28.9,24.7 73.7,52.6 188.9,323.4 330.7,741.4l0.4 0.8 0.4 1.4c756,2229.8 2265.8,8646.9 2265.8,8646.9l7725.5 12254.1 333 5860.8 66.6 5061.5 -1531.8 1265.4 -351.7 0 -980.3 0 -1864.7 -2664 -76.9 -784.2 -591.5 -2863.9 -996.6 -747.4 -1398.6 -4861.7 -3063.5 -932.4 -6250 -4290.2 -1727.9 -673.4 -2278.3 8226.9 -6626.3 7792.1 -5094.8 266.4 332.9 -2564.2 4262.3 -2797 1065.6 -4262.4 -4129.1 -7059.4c0,0 -3596.3,0 -5461.1,0 -1864.8,0 -9989.8,799.1 -9989.8,799.1l1598.4 11321.8 133.2 6127.1 -7325.9 -133.2 1864.8 -2664 932.4 -3063.5 -2397.6 -5727.4c0,0 -2131.2,-932.5 -3329.9,-1465.2 -1198.8,-532.8 -4661.9,-3063.6 -4661.9,-3063.6l-10522.6 10655.8 -10522.6 8391.5z"/> <path class="fil0" d="M152248.7 94052.7c-3395,1932.5 -6618.8,5398.3 -9791.6,7867 -3311.1,2576.2 -6122.6,5137.6 -9412.3,7805.6 -2357.8,2088.6 -4437.8,3704.8 -6929.9,5831.4l-42351.5 35252.3c-3527.8,2784.7 -5200.4,3556.3 -4370.2,8253.4 501.1,466.9 1290.5,1722.5 2197.9,2629.4 1803.9,2311.2 3592.8,4376.7 5714.5,6844.9 5901.5,6865.6 6759.1,4786.5 14900.6,-2088.3l21173.1 -17637.9c1963.6,-1649.1 12942.5,-11119.1 14193.4,-11465.6 466.3,-1015.1 2527.2,-2521.6 3504.9,-3296.8 1334.4,-1057.8 2288.4,-2139.4 3747.2,-3012.7l394.5 -101c978.4,-1463.1 5153,-4632.3 6632.9,-5868.9l39557.9 -33105.3c8616.6,-7000.6 5354.2,-6551 12290.5,-1008.5l2870.7 2414.5c1052.1,940.8 1647.6,1340 2890.9,2392.4l34326.6 28682.9c1086.3,723.1 2438.6,1984.2 3555.1,2945.9 1007.5,867.9 2559.4,1933.8 3356.6,2910.6 777.2,490.8 -60,-72.3 646.8,482.9l47338.2 39452.5c522.3,423 1396.4,1254.1 1915.7,1608.4 1838.4,1254.6 4870.3,774.6 6194.7,-480.6l10188 -12156.2c731.7,-4178.6 -393.6,-5225.3 -2888.2,-7198.4l-16974.6 -14080.1c-3837.5,-3276 -7457.1,-6282.5 -11347.8,-9445.8 -3372.3,-2741.8 -2452.4,-1904.8 -2451.6,-7597l-14.6 -51858.4c19.4,-3585.3 -192.8,-6593.7 -3417.7,-7378.2 -2037.5,-495.7 -28461.2,-412.3 -30274,-83.7 -3118,490.8 -4194,2256.4 -4256.5,5682.2 -163.3,8952.8 315.2,18492.1 -8,27511.8 -1088.9,-566.3 -4479.6,-3618.4 -5589.4,-4593.8l-21889.2 -18320.2c-6082.9,-5164.1 -11254.4,-10642.1 -19049.8,-10873.6 -6974,-207.1 -10528.3,2774.7 -14238.4,5816.6l-30046.7 24987.7c-456.9,377.1 -883.2,746.8 -1354.1,1138.3 -799,664.3 -828.4,332.2 -934.6,1140.3z"/> </g> </g> </svg>